<?xml version="1.0" encoding="UTF-8"?>
<!DOCTYPE svg PUBLIC "-//W3C//DTD SVG 1.1//EN" "http://www.w3.org/Graphics/SVG/1.1/DTD/svg11.dtd">
<svg xmlns:xlink="http://www.w3.org/1999/xlink" xmlns="http://www.w3.org/2000/svg" xml:space="preserve"
     width="545.075mm" height="441.068mm" version="1.1"
     style="shape-rendering:geometricPrecision; text-rendering:geometricPrecision; image-rendering:optimizeQuality; fill-rule:evenodd; clip-rule:evenodd"
     viewBox="0 0 17003 13759">
 <defs>
  <linearGradient id="id0" gradientUnits="userSpaceOnUse" x1="3680.41" y1="13629" x2="3680.41" y2="4153.82">
   <stop offset="0" style="stop-opacity:1; stop-color:#D4F6FF"/>
   <stop offset="1" style="stop-opacity:1; stop-color:white"/>
  </linearGradient>
  <linearGradient id="id1" gradientUnits="userSpaceOnUse" xlink:href="#id0" x1="13323.9" y1="13645.9" x2="13323.9"
                  y2="4153.83">
  </linearGradient>
  <linearGradient id="id2" gradientUnits="userSpaceOnUse" xlink:href="#id0" x1="7924.02" y1="8903.13" x2="7924.02"
                  y2="2038.17">
  </linearGradient>
  <linearGradient id="id3" gradientUnits="userSpaceOnUse" xlink:href="#id0" x1="8953.98" y1="6988.31" x2="8953.98"
                  y2="112.762">
  </linearGradient>
  <linearGradient id="id4" gradientUnits="userSpaceOnUse" x1="8501.67" y1="13758.9" x2="8501.67" y2="0">
   <stop offset="0" style="stop-opacity:1; stop-color:#1C1B17"/>
   <stop offset="1" style="stop-opacity:1; stop-color:#1C1B17"/>
  </linearGradient>
 </defs>
 <g id="Capa_x0020_1">
  <g id="_314329280">
   <g>
    <path fill="url(#id4)"
          d="M13212 6334c-48,48 -96,98 -144,146 -73,74 -150,151 -231,216 -73,59 -179,133 -274,77 -68,-39 -81,-114 -74,-185 1,-149 0,-299 -1,-449 -1,-250 -3,-499 -4,-749 -1,-271 -2,-542 0,-812 1,-96 1,-192 4,-287 1,-47 0,-111 9,-157 10,-55 56,-93 111,-93l4283 3c57,0 105,43 112,100 7,64 -47,115 -85,159 -51,58 -104,115 -156,172 -156,170 -315,337 -475,503 -154,160 -310,319 -469,474 -58,57 -230,231 -306,253 -76,23 -155,17 -233,11 -32,-3 -70,-7 -105,-6 -1,49 11,138 11,170l0 792c0,180 50,309 -106,446l-3476 3464 -2 1362c0,8 -1,16 -2,24 -13,56 -55,95 -97,131 -13,11 -28,22 -40,34 -1,1 -1,1 -1,2l-1281 1282c-1,1 -2,2 -4,4 -93,84 -245,298 -358,333 -44,13 -90,0 -120,-36 -79,-96 -48,-342 -48,-465l0 -2080c0,-276 -17,-557 5,-831 3,-36 20,-65 49,-85 11,-7 23,-14 34,-22 5,-5 10,-11 15,-16 21,-26 42,-49 67,-71l3172 -3163c0,0 1,-1 1,-1 18,-17 33,-42 50,-61 39,-42 79,-82 122,-120 8,-7 32,-28 38,-37 8,-22 6,-156 6,-182 0,-83 2,-167 3,-250zm-9422 10l1 328c0,22 -2,48 -2,72 8,9 17,17 25,26l3141 3150c0,1 1,2 1,2 19,19 37,38 55,58l229 227c1,1 2,1 3,2 21,23 45,40 65,66 38,48 48,102 48,161 0,513 3,1025 4,1538 1,372 2,745 -1,1117 -1,126 -2,253 -4,380 -2,45 0,156 -16,198 -19,49 -67,78 -120,72 -34,-4 -63,-11 -91,-33 -17,-14 -25,-29 -40,-43 -1,-1 -1,-1 -2,-2l-1521 -1504c-1,-1 -2,-2 -4,-4 -37,-40 -94,-85 -122,-130 -39,-65 -36,-151 -36,-225l0 -1045c0,-33 6,-157 -5,-185 -7,-19 -40,-51 -54,-64 -68,-67 -138,-132 -205,-199l-3128 -3112c-1,-2 -3,-3 -4,-5 -38,-42 -84,-73 -120,-117 -51,-63 -67,-135 -66,-214 2,-196 6,-392 7,-588 1,-122 2,-244 0,-366 -1,-61 -1,-122 -4,-184l-326 -2c-39,0 -72,-18 -94,-51 -26,-40 -82,-82 -117,-119l-1232 -1240c-6,-6 -10,-11 -14,-17 -9,-13 -17,-22 -24,-36 -16,-32 -16,-61 -17,-95 -1,-31 10,-59 32,-81 22,-23 49,-34 81,-34l4125 -5c85,0 189,-4 249,68 56,67 38,170 38,252l-1 2245c0,6 1,12 1,18 3,66 7,132 -47,183 -36,35 -85,46 -133,38 -24,-4 -43,-14 -60,-30l-495 -471zm4810 60c-40,39 -56,75 -118,93 -65,18 -123,-9 -170,-52 -1,0 -1,-1 -2,-2l-543 -524c-1,-1 -3,-2 -4,-4 -40,-43 -84,-84 -128,-124 -58,-55 -117,-109 -177,-163 -70,-64 -141,-128 -210,-195 -28,-26 -59,-55 -88,-86l-349 354c-24,23 -48,46 -72,70 0,0 0,0 0,0 3,4 6,7 9,10 32,33 64,66 97,99 55,56 112,110 167,166 1,1 2,2 2,2 451,486 915,960 1386,1426 10,10 25,30 39,47 5,-5 11,-10 15,-15 34,-31 66,-63 98,-95 54,-53 110,-108 162,-164 1,-1 2,-2 3,-3l550 -550c138,-138 253,-236 443,-293 269,-82 728,-20 913,209 42,52 56,85 53,155 -1,25 -9,45 -24,65 -36,46 -89,96 -131,138 -72,73 -146,145 -219,217 -111,109 -226,217 -333,329 -36,37 -74,73 -110,111 -1,0 -1,0 -1,1l-1119 1111c-60,65 -119,133 -182,195 -48,47 -102,91 -174,83 -68,-8 -107,-57 -153,-101 -1,-1 -2,-2 -3,-3l-2776 -2813c-38,-38 -77,-74 -114,-114 -40,-43 -98,-92 -125,-143 -38,-71 -33,-169 -33,-248 0,-211 -2,-423 -3,-635 -2,-377 -3,-753 -4,-1130 -1,-405 -1,-810 2,-1215 2,-137 3,-273 7,-410 1,-41 3,-82 6,-123 2,-37 5,-74 26,-105 19,-29 48,-46 82,-49 35,-3 66,8 90,32l3496 3492c55,53 114,104 168,157 46,46 87,95 86,164 -1,56 -30,98 -66,137 -33,36 -70,71 -104,106 -123,128 -235,268 -365,390zm2428 203c-199,-213 -406,-420 -614,-625 -248,-245 -498,-487 -748,-731 -405,-394 -815,-792 -1200,-1206 -73,-78 -151,-153 -227,-229l-347 -346c0,-1 -1,-1 -1,-2 -54,-57 -125,-93 -141,-178 -16,-81 30,-145 86,-197l363 -386c36,-43 74,-89 115,-126 43,-38 92,-66 151,-59 55,6 92,38 128,76 31,32 59,63 91,92 58,52 112,104 164,162 96,105 214,192 312,298l235 235c100,97 194,206 304,291 6,5 12,10 18,14 26,-26 52,-52 78,-78 49,-48 95,-98 144,-146 1,0 1,-1 2,-2 38,-35 100,-79 130,-120 21,-31 50,-55 77,-81 1,-1 2,-2 4,-4 -15,-15 -30,-31 -43,-45 -59,-62 -119,-124 -178,-185 -170,-175 -341,-349 -511,-523 -261,-265 -525,-529 -784,-796 -56,-57 -111,-116 -167,-174 -5,-6 -13,-15 -22,-24 -2,2 -4,5 -6,7 -1,0 -1,0 -1,1l-248 247c-1,1 -2,1 -3,3 -88,80 -172,171 -255,257 -55,57 -111,114 -167,169 -42,41 -87,86 -134,122 -50,38 -94,96 -141,140 -296,282 -951,289 -1224,-29 -33,-38 -62,-75 -65,-128 -4,-58 26,-105 64,-145 1,0 1,-1 2,-1 633,-633 1268,-1264 1904,-1894 49,-61 108,-109 158,-169 35,-41 61,-78 119,-89 62,-12 114,17 155,60 1009,1021 2011,2050 3028,3063 81,79 70,122 70,222l0 2465c0,393 8,786 -4,1179 -2,62 -54,111 -116,109 -37,-1 -71,-10 -101,-33 -22,-17 -31,-32 -47,-51 -1,-1 -1,-1 -2,-2 -89,-103 -193,-193 -286,-294 -15,-17 -31,-31 -48,-45 -26,-22 -49,-43 -71,-69z"/>
   </g>
   <g>
    <path fill="url(#id1)"
          d="M13321 6095c9,154 0,333 0,489 0,308 3,199 -195,415 -24,26 -29,41 -54,66l-3174 3164c-24,22 -39,39 -59,63 -35,40 -29,30 -72,58 -20,250 -4,566 -4,823l0 2080c0,93 -22,340 22,393 65,-20 250,-249 316,-309l1280 -1282c33,-34 100,-76 108,-112l1 -1408 3512 -3499c115,-99 71,-185 71,-364l0 -792c0,-74 -43,-258 40,-276 3,-1 5,-2 9,-3 111,-17 252,28 358,-4 115,-34 1414,-1412 1411,-1440l-4283 -3c-24,130 -3,2144 -6,2441 -41,348 618,-489 719,-500l0 0z"/>
    <path fill="url(#id0)"
          d="M113 4159c1,53 2,41 22,70l1233 1242c42,45 97,84 131,135l433 3c19,287 6,914 2,1251 -2,151 73,161 157,255l3127 3112c329,327 298,233 298,528l0 1045c0,200 10,150 128,279l1522 1504c39,38 19,40 67,46 26,-69 10,-2610 10,-3193 0,-94 -33,-96 -82,-149l-232 -230c-19,-22 -33,-35 -54,-57l-3142 -3152c-73,-79 -56,-33 -55,-176l-1 -592 686 653c67,11 49,-63 49,-127l1 -2245c0,-193 33,-207 -174,-207l-4126 5 0 0z"/>
    <path fill="url(#id2)"
          d="M10564 6760c2,-45 -8,-53 -29,-79 -159,-198 -580,-238 -792,-173 -171,51 -272,140 -396,265l-551 551c-38,42 -315,324 -343,329 -61,11 -97,-63 -133,-99 -464,-460 -942,-949 -1388,-1429 -46,-47 -325,-316 -332,-344 4,-62 21,-50 59,-89 24,-24 47,-46 72,-71l356 -360c37,-36 54,-49 108,-48 80,115 510,474 651,625l542 524c69,63 87,6 134,-40 123,-115 243,-262 362,-386 195,-203 197,-138 -82,-405l-3496 -3493c-39,57 -14,3243 -14,3555 0,224 3,179 128,315 38,41 65,65 111,111l2777 2813c114,110 76,121 350,-173l1120 -1113c38,-39 71,-70 110,-111 95,-98 622,-606 676,-675l0 0z"/>
    <path fill="url(#id3)"
          d="M7414 2377c51,-49 96,-107 151,-149 109,-83 417,-421 547,-541l248 -247c106,-108 50,-127 357,192 121,122 1554,1570 1565,1607 16,63 -87,123 -120,170 -35,50 -97,95 -145,139 -51,48 -95,96 -142,144 -192,189 -137,156 -244,74 -115,-88 -211,-200 -315,-301l-237 -237c-96,-104 -224,-200 -314,-301 -52,-57 -94,-97 -156,-153 -169,-151 -129,-223 -326,8l-368 391c-116,106 -28,129 57,217l347 347c76,76 152,147 229,232 706,757 1933,1888 2565,2563 39,48 77,68 118,113 91,100 196,191 287,297 27,29 27,45 68,46 12,-391 4,-783 4,-1175l0 -2465c0,-83 13,-94 -36,-141 -1018,-1014 -2020,-2043 -3030,-3065 -52,-56 -69,-21 -107,23 -53,62 -110,108 -160,172 -638,631 -1273,1263 -1909,1897 -51,53 -38,72 5,122 222,257 801,268 1061,21z"/>
   </g>
  </g>
 </g>
</svg>
